<svg preserveAspectRatio="none" overflow="visible" style="display: block;" width="15" height="15" viewBox="0 0 15 15" fill="none" xmlns="http://www.w3.org/2000/svg">
<g id="SVG">
<path id="Vector" d="M2.5 1.25V13.75L3.75 13.125L5 13.75L6.25 13.125L7.5 13.75L8.75 13.125L10 13.75L11.25 13.125L12.5 13.75V1.25L11.25 1.875L10 1.25L8.75 1.875L7.5 1.25L6.25 1.875L5 1.25L3.75 1.875L2.5 1.25Z" stroke="#000" stroke-width="1.0625" stroke-linecap="round" stroke-linejoin="round"/>
<path id="Vector_2" d="M10 5H6.25C5.91848 5 5.60054 5.1317 5.36612 5.36612C5.1317 5.60054 5 5.91848 5 6.25C5 6.58152 5.1317 6.89946 5.36612 7.13388C5.60054 7.3683 5.91848 7.5 6.25 7.5H8.75C9.08152 7.5 9.39946 7.6317 9.63388 7.86612C9.8683 8.10054 10 8.41848 10 8.75C10 9.08152 9.8683 9.39946 9.63388 9.63388C9.39946 9.8683 9.08152 10 8.75 10H5" stroke="#000" stroke-width="1.0625" stroke-linecap="round" stroke-linejoin="round"/>
<path id="Vector_3" d="M7.5 10.9375V4.0625" stroke="#000" stroke-width="1.0625" stroke-linecap="round" stroke-linejoin="round"/>
</g>
</svg>
