<svg width="16" height="16" viewBox="0 0 16 16" fill="none" xmlns="http://www.w3.org/2000/svg">
  <path d="M9.69067 14.4573C9.71599 14.5205 9.76003 14.5743 9.81685 14.6117C9.87367 14.6491 9.94057 14.6682 10.0086 14.6664C10.0766 14.6647 10.1424 14.6422 10.1972 14.602C10.2521 14.5617 10.2933 14.5057 10.3153 14.4413L14.6487 1.77467C14.67 1.7156 14.6741 1.65167 14.6604 1.59037C14.6467 1.52907 14.6159 1.47293 14.5715 1.42852C14.5271 1.38411 14.4709 1.35326 14.4096 1.33959C14.3483 1.32593 14.2844 1.33 14.2253 1.35133L1.55867 5.68467C1.49433 5.70673 1.43828 5.74795 1.39805 5.80278C1.35781 5.85762 1.33531 5.92345 1.33357 5.99144C1.33183 6.05943 1.35093 6.12633 1.38831 6.18315C1.42568 6.23997 1.47954 6.28401 1.54267 6.30933L6.82933 8.42933C6.99646 8.49625 7.1483 8.59631 7.27571 8.72349C7.40312 8.85067 7.50345 9.00233 7.57067 9.16933L9.69067 14.4573Z" stroke="#000" stroke-width="1.2" stroke-linecap="round" stroke-linejoin="round"/>
  <path d="M14.5693 1.43133L7.276 8.724" stroke="#000" stroke-width="1.2" stroke-linecap="round" stroke-linejoin="round"/>
</svg>
