<?xml version="1.0" encoding="UTF-8"?>
<svg version="1.1" xmlns="http://www.w3.org/2000/svg" width="1254" height="1254">
<path d="M0 0 C413.82 0 827.64 0 1254 0 C1254 413.82 1254 827.64 1254 1254 C840.18 1254 426.36 1254 0 1254 C0 840.18 0 426.36 0 0 Z " fill="#040706" transform="translate(0,0)"/>
<path d="M0 0 C0.92804947 -0.0071553 1.85609894 -0.01431061 2.81227112 -0.02168274 C3.83358627 -0.02437164 4.85490143 -0.02706055 5.90716553 -0.02983093 C6.98046616 -0.03640213 8.05376678 -0.04297333 9.15959167 -0.04974365 C12.72356225 -0.06950915 16.28749063 -0.08114661 19.85150146 -0.09111023 C21.06679283 -0.09518576 22.2820842 -0.09926128 23.53420258 -0.10346031 C29.96662731 -0.12433507 36.39903063 -0.13863063 42.83148193 -0.147995 C49.48077132 -0.15906141 56.12971803 -0.19346037 62.77890396 -0.23316669 C67.8867048 -0.25929415 72.9944255 -0.26768342 78.10228729 -0.27127647 C80.55350757 -0.27615254 83.00472404 -0.28779534 85.45587921 -0.30631447 C88.88652646 -0.3306223 92.31630255 -0.32975567 95.74700928 -0.32279968 C96.76022751 -0.33560974 97.77344574 -0.3484198 98.81736755 -0.36161804 C104.72306611 -0.31796124 108.10095656 0.19262721 112.58587646 4.14717102 C114.87979302 7.58804585 114.84617109 8.87680802 114.87666512 12.93046379 C114.89051439 14.14412491 114.90436367 15.35778602 114.91863263 16.60822475 C114.92398196 17.96209755 114.92911373 19.31597122 114.93405151 20.66984558 C114.94637471 22.10273223 114.95952674 23.53561195 114.9734391 24.96848404 C115.00906515 28.91572711 115.03193787 32.86295736 115.05255246 36.81030369 C115.07181694 40.19382634 115.0984416 43.57727512 115.12509038 46.96074645 C115.22030617 59.082673 115.28557466 71.2047044 115.34368896 83.32685852 C115.35061171 84.76213 115.35061171 84.76213 115.3576743 86.22639686 C115.44856802 105.22815326 115.52560374 124.22995588 115.57913399 143.23185539 C115.59111215 147.41065911 115.60328345 151.58946221 115.61566162 155.76826477 C115.61872758 156.80688279 115.62179355 157.8455008 115.62495242 158.91559209 C115.67634768 175.7297943 115.790077 192.54299246 115.92859222 209.35667859 C116.06965395 226.62227964 116.1500204 243.88736221 116.17263305 261.15353024 C116.18694026 270.84679254 116.22832823 280.53831164 116.3386879 290.23099899 C116.43264554 298.48897919 116.47207231 306.74495426 116.4409249 315.00344984 C116.42673658 319.21524178 116.43809533 323.42274479 116.52008057 327.63385582 C117.01075595 354.19106431 117.01075595 354.19106431 111.0711937 360.9535408 C107.81602975 363.90947995 104.34998103 366.1411163 100.44936156 368.14993882 C97.93671544 369.49456541 95.85881749 371.22404655 93.71087646 373.08467102 C89.06026061 376.79886846 84.35170347 380.43769338 79.64837646 384.08467102 C73.7023397 388.6957463 67.81456238 393.35691285 62.01165771 398.14717102 C55.61936619 403.41746613 49.10327181 408.53315962 42.58587646 413.64717102 C35.64823167 419.09150696 28.74280626 424.57223763 21.90618896 430.14326477 C20.54943875 431.24875883 19.19266737 432.35422691 17.83587646 433.45967102 C16.81880615 434.28857849 16.81880615 434.28857849 15.78118896 435.13423157 C10.54455592 439.39209525 5.25663879 443.58025221 -0.07330322 447.72065735 C-2.29519452 449.45168869 -4.42013032 451.15317781 -6.41412354 453.14717102 C-8.97662354 453.33467102 -8.97662354 453.33467102 -11.41412354 453.14717102 C-13.07593466 451.4853599 -12.5434992 449.47468349 -12.55669466 447.25411361 C-12.55578273 446.54641218 -12.5548708 445.83871076 -12.55393124 445.10956383 C-12.55688266 444.36086924 -12.55983408 443.61217466 -12.56287494 442.84079236 C-12.57162506 440.29987225 -12.57315192 437.75899734 -12.57475281 435.21806335 C-12.57947976 433.39077667 -12.58463011 431.56349105 -12.59017044 429.73620665 C-12.60412563 424.68968392 -12.61167398 419.64316844 -12.61814344 414.59663129 C-12.62450003 410.27429749 -12.63457216 405.95197568 -12.6447041 401.62964933 C-12.67808195 387.3846361 -12.69956013 373.13961557 -12.71790394 358.89457601 C-12.72269608 355.187011 -12.72767975 351.47944628 -12.73270917 347.77188158 C-12.76367893 324.76675712 -12.79037516 301.76163018 -12.80712795 278.75649071 C-12.81107771 273.42398957 -12.81507714 268.09148847 -12.81915283 262.75898743 C-12.8196545 262.09647547 -12.82015617 261.43396351 -12.82067304 260.75137544 C-12.8370904 239.2721269 -12.87554411 217.79299229 -12.92643994 196.3137998 C-12.98012905 173.61444912 -13.01184432 150.91516652 -13.01932484 128.21575224 C-13.02399305 115.83832063 -13.03880652 103.46107751 -13.07906914 91.0837059 C-13.11331363 80.54334065 -13.12733113 70.00319786 -13.114645 59.46278016 C-13.10880492 54.08261768 -13.11277695 48.70292599 -13.14281464 43.32283401 C-13.17008176 38.39888568 -13.16975053 33.47574476 -13.14730418 28.55177923 C-13.14406902 26.76904654 -13.15102055 24.98626071 -13.16910141 23.20361678 C-13.31196879 8.21077013 -13.31196879 8.21077013 -9.49360752 3.60398293 C-5.86803524 0.71150185 -4.48350117 0.02368623 0 0 Z " fill="#0C9F68" transform="translate(687.4141235351563,250.8528289794922)"/>
<path d="M0 0 C2.32424543 1.91408447 3.24836743 2.88102068 4.125 5.75 C4.76018898 12.75398498 2.62785143 19.00459335 0.703125 25.6875 C0.34486633 26.95730713 -0.01339233 28.22711426 -0.38250732 29.53540039 C-1.34019747 32.92565288 -2.31010862 36.31227206 -3.28451538 39.69775391 C-3.86484837 41.71471773 -4.4431032 43.73226595 -5.02075195 45.75 C-7.50293242 54.4147419 -10.01402712 63.07092277 -12.53527832 71.72436523 C-13.33178586 74.46028868 -14.12602258 77.19686923 -14.92024612 79.93345642 C-15.70190429 82.62605657 -16.48464174 85.31834201 -17.26772308 88.01052856 C-17.8064405 89.86293672 -18.34454776 91.7155223 -18.88262939 93.56811523 C-19.87258789 96.96433803 -20.87167121 100.35770501 -21.875 103.75 C-22.22614868 104.94858643 -22.57729736 106.14717285 -22.93908691 107.38208008 C-23.28628784 108.54505615 -23.63348877 109.70803223 -23.99121094 110.90625 C-24.3005658 111.94974609 -24.60992065 112.99324219 -24.9286499 114.06835938 C-26.24001413 117.78432833 -27.47391275 119.70934765 -30.875 121.75 C-34.06579491 122.48231359 -36.75057871 122.79325711 -39.875 121.75 C-44.68291626 116.96561351 -47.76247214 111.06554715 -51.0625 105.1875 C-51.59552734 104.25486328 -52.12855469 103.32222656 -52.67773438 102.36132812 C-55.02407793 98.22054823 -57.18075462 94.20637576 -58.875 89.75 C-66.46260888 95.13617497 -73.71108848 100.8165313 -80.875 106.75 C-83.4744431 108.88081701 -86.07999665 111.00405684 -88.6875 113.125 C-89.37158936 113.68147217 -90.05567871 114.23794434 -90.76049805 114.8112793 C-95.66192089 118.78845034 -100.61037074 122.70074632 -105.58520508 126.58544922 C-110.05897259 130.0873184 -114.47344571 133.65792696 -118.875 137.25 C-124.39839685 141.75759973 -129.96684436 146.19842642 -135.5859375 150.5859375 C-140.05936708 154.08776247 -144.47367202 157.65811164 -148.875 161.25 C-153.83737817 165.2997569 -158.826581 169.30799493 -163.875 173.25 C-170.38729417 178.33597845 -176.7986637 183.54096139 -183.203125 188.76171875 C-186.8439526 191.72890084 -190.51058618 194.66262452 -194.18359375 197.58984375 C-197.78326621 200.4789858 -201.35901596 203.39718456 -204.9375 206.3125 C-209.72382076 210.210184 -214.53374591 214.06358733 -219.42578125 217.828125 C-222.84084697 220.50788949 -226.19893141 223.25603615 -229.5625 226 C-234.62928477 230.13268478 -239.72119213 234.22634169 -244.875 238.25 C-251.38733671 243.33592278 -257.79866501 248.54096246 -264.203125 253.76171875 C-267.08112454 256.10721533 -269.97155836 258.43601547 -272.875 260.75 C-277.10267187 264.12223993 -281.30379127 267.52626566 -285.5 270.9375 C-286.18175293 271.49163574 -286.86350586 272.04577148 -287.56591797 272.61669922 C-291.03587258 275.43821569 -294.50363641 278.26238422 -297.96875 281.08984375 C-304.28969203 286.24292667 -310.62904844 291.36282979 -317.0625 296.375 C-322.14399166 300.33521683 -327.08294943 304.43211309 -331.97680664 308.62109375 C-336.48489264 312.46230312 -341.11620023 316.1277554 -345.78735352 319.76782227 C-350.23420221 323.23513983 -354.6068933 326.78377059 -358.9609375 330.3671875 C-363.07773162 333.73346688 -367.22836724 337.05684114 -371.39160156 340.36547852 C-374.16826245 342.57341292 -376.92362886 344.791121 -379.6328125 347.08203125 C-392.34676222 357.77237804 -407.20502684 363.53283738 -423.8125 363.25 C-425.52481812 363.23187256 -425.52481812 363.23187256 -427.27172852 363.21337891 C-435.45731669 363.02030878 -442.38769595 362.26377865 -449.875 358.75 C-450.81859375 358.32589844 -451.7621875 357.90179687 -452.734375 357.46484375 C-467.54381369 350.12148948 -478.3138293 336.25718003 -488.49609375 323.59765625 C-491.18629479 320.37736634 -494.00764787 317.31187099 -496.875 314.25 C-502.69685306 308.03019749 -508.12486348 301.56316735 -513.36328125 294.83984375 C-516.58340058 290.78229401 -519.56108957 288.28174822 -524.6796875 287.10546875 C-534.79286119 286.55220352 -540.10330571 290.56743304 -547.85205078 296.3046875 C-551.28063228 298.7542654 -554.88785324 300.89703167 -558.5 303.0625 C-560.03426447 303.99151021 -561.5681107 304.92121148 -563.1015625 305.8515625 C-563.88305664 306.3249707 -564.66455078 306.79837891 -565.46972656 307.28613281 C-569.62001533 309.81202922 -573.74667198 312.37592586 -577.875 314.9375 C-595.94636549 326.13665608 -614.03190969 337.30634679 -632.28759766 348.203125 C-635.04200364 349.8498429 -637.79285213 351.50237909 -640.54296875 353.15625 C-664.15679687 367.35570374 -687.8117937 381.47745839 -711.70703125 395.19921875 C-717.84463642 398.72536535 -723.95446402 402.29795916 -730.0625 405.875 C-738.74327601 410.95416235 -747.4760972 415.93236946 -756.2421875 420.86254883 C-764.0545177 425.26495633 -771.80178686 429.77285488 -779.53857422 434.30639648 C-787.32766981 438.86416674 -795.15754773 443.34754865 -803 447.8125 C-811.55848967 452.68689578 -820.08760415 457.60627963 -828.5625 462.625 C-829.44824707 463.14803711 -830.33399414 463.67107422 -831.24658203 464.20996094 C-835.45260521 466.69909537 -839.63990132 469.21340069 -843.80078125 471.77734375 C-844.57526611 472.24865723 -845.34975098 472.7199707 -846.14770508 473.20556641 C-847.58014723 474.07825231 -849.00637973 474.96125823 -850.42456055 475.85693359 C-854.41318339 478.27314298 -857.20932766 479.23240748 -861.875 478.75 C-862.205 477.43 -862.535 476.11 -862.875 474.75 C-854.6277029 466.76796684 -845.21304895 460.36953348 -835.875 453.75 C-834.09464485 452.48060907 -832.3156518 451.20933165 -830.53686523 449.93774414 C-829.42353667 449.14204215 -828.30976253 448.34696325 -827.19555664 447.55249023 C-820.16852699 442.54063102 -813.17896058 437.47686477 -806.18505859 432.41894531 C-803.92319171 430.78481701 -801.65923692 429.1536287 -799.39453125 427.5234375 C-791.6896913 421.97450027 -784.0121894 416.39176126 -776.375 410.75 C-767.99551542 404.55988881 -759.56392637 398.44525691 -751.10888672 392.35888672 C-747.36140216 389.65987872 -743.61844155 386.95461116 -739.875 384.25 C-738.37502146 383.16663696 -736.87502146 382.08330362 -735.375 381 C-734.26125 380.195625 -734.26125 380.195625 -733.125 379.375 C-684.75 344.4375 -684.75 344.4375 -636.375 309.5 C-635.63258057 308.96375 -634.89016113 308.4275 -634.12524414 307.875 C-632.62465345 306.79135764 -631.12383946 305.70802444 -629.62280273 304.625 C-625.87995113 301.92388103 -622.14108921 299.2175629 -618.41015625 296.5 C-609.95587509 290.35159979 -601.41989111 284.35418997 -592.76977539 278.484375 C-587.89731793 275.16695716 -583.10707312 271.76428375 -578.375 268.25 C-557.74692375 253.01613613 -540.59572101 241.35687849 -513.8984375 245.17578125 C-499.7093603 248.94258839 -489.09785698 258.70166441 -480.2265625 269.859375 C-477.86964163 272.7565867 -475.40759832 275.50569841 -472.875 278.25 C-468.78271925 282.69593464 -464.95256886 287.2940372 -461.16015625 291.99609375 C-458.00051107 295.80387128 -454.64439707 299.41512955 -451.28125 303.04296875 C-448.96783449 305.6455612 -446.89472302 308.33630846 -444.8125 311.125 C-439.89574802 317.39809736 -433.79432198 320.92949992 -425.90234375 322.0234375 C-414.45286587 322.57986072 -406.15707187 315.82680374 -397.875 308.75 C-395.81228727 307.04307237 -393.7425576 305.34487017 -391.67260742 303.64672852 C-389.44535044 301.81894242 -387.22210532 299.98638807 -385 298.15234375 C-377.50391912 291.96773505 -369.97958391 285.82246585 -362.3828125 279.76171875 C-358.89483386 276.96372966 -355.43905207 274.12715339 -351.98046875 271.29296875 C-343.35595272 264.22781494 -334.72988921 257.16835693 -325.9375 250.3125 C-319.93669693 245.63268255 -314.06537012 240.80641858 -308.20483398 235.95263672 C-303.11692809 231.74805184 -297.96359502 227.63928874 -292.75952148 223.57983398 C-288.37685635 220.15775299 -284.06779496 216.65354908 -279.7734375 213.12109375 C-271.57700153 206.41592309 -263.27812984 199.83705373 -254.9375 193.3125 C-249.1826525 188.81012534 -243.50783231 184.2149615 -237.84716797 179.5949707 C-232.88071833 175.54852367 -227.86060988 171.57664834 -222.8125 167.6328125 C-219.29677072 164.88137219 -215.82176379 162.08791938 -212.375 159.25 C-208.35623985 155.94112303 -204.28917493 152.70468381 -200.1875 149.5 C-193.02780862 143.90113317 -185.97543137 138.17519004 -178.93359375 132.42919922 C-175.45882627 129.59482413 -171.97971518 126.76579735 -168.5 123.9375 C-167.82904297 123.392146 -167.15808594 122.84679199 -166.46679688 122.28491211 C-161.29021523 118.08054596 -156.09119963 113.90512654 -150.875 109.75 C-145.7645161 105.67796643 -140.6708797 101.58945372 -135.625 97.4375 C-131.54324984 94.08749217 -127.41348178 90.80945141 -123.25 87.5625 C-117.83843144 83.34171724 -112.53056981 79.00830273 -107.25 74.625 C-100.60825555 69.11510668 -93.85097635 63.8307689 -86.875 58.75 C-88.4727999 54.54578902 -91.60482926 51.98209498 -94.875 49.0625 C-95.7397998 48.27673584 -95.7397998 48.27673584 -96.62207031 47.47509766 C-99.37427755 44.97896271 -102.14693289 42.50595736 -104.921875 40.03515625 C-105.81390625 39.23980469 -106.7059375 38.44445312 -107.625 37.625 C-108.42421875 36.92117188 -109.2234375 36.21734375 -110.046875 35.4921875 C-112.70497906 32.95903705 -113.13161515 31.07775724 -113.375 27.5 C-113.4471875 26.75234375 -113.519375 26.0046875 -113.59375 25.234375 C-112.38625092 21.06062819 -109.51527457 18.97048868 -105.875 16.75 C-101.50682255 15.29139832 -97.06817417 14.52655256 -92.53515625 13.75 C-91.21817723 13.50755185 -89.90157287 13.26306073 -88.58532715 13.0166626 C-85.09225224 12.36837814 -81.59484204 11.74750013 -78.09581375 11.13227844 C-74.49384535 10.49430129 -70.89642954 9.83166016 -67.29858398 9.17089844 C-62.35290146 8.26474066 -57.40595198 7.36629448 -52.45680332 6.47925949 C-45.58638496 5.24785739 -38.72579168 3.97675901 -31.875 2.640625 C-31.1156163 2.49330933 -30.3562326 2.34599365 -29.57383728 2.19421387 C-26.30151801 1.55905626 -23.03019533 0.91952873 -19.76000977 0.2734375 C-5.58705121 -2.4291527 -5.58705121 -2.4291527 0 0 Z " fill="#0FBC7B" transform="translate(1073.875,458.25)"/>
<path d="M0 0 C0.95879059 -0.01691895 1.91758118 -0.03383789 2.90542603 -0.05126953 C4.45790543 -0.03305145 4.45790543 -0.03305145 6.04174805 -0.01446533 C7.69646622 -0.03023621 7.69646622 -0.03023621 9.38461304 -0.04632568 C13.02481005 -0.07269636 16.66325254 -0.05526273 20.3034668 -0.03497314 C22.83642919 -0.03901553 25.36938932 -0.04483917 27.90234375 -0.05236816 C33.20849945 -0.06121082 38.51402853 -0.04894047 43.82006836 -0.02032471 C49.94506076 0.01232733 56.06885472 0.00174912 62.19381809 -0.03128314 C68.09817495 -0.06184491 74.00216108 -0.05854315 79.90658569 -0.04099274 C82.41360645 -0.03699175 84.92065782 -0.04189679 87.42764282 -0.05587006 C90.93264642 -0.07111893 94.43535296 -0.04786937 97.94018555 -0.01446533 C98.97517181 -0.02661072 100.01015808 -0.0387561 101.07650757 -0.05126953 C102.51469345 -0.02589111 102.51469345 -0.02589111 103.98193359 0 C104.80928513 0.00226215 105.63663666 0.00452431 106.48905945 0.00685501 C110.47127001 1.20864033 112.86007721 3.17729004 114.9909668 6.76190186 C115.85253271 10.70091333 115.77527898 14.55009844 115.7124939 18.56887817 C115.71762045 19.76640201 115.72274699 20.96392585 115.72802889 22.19773829 C115.73619533 25.51423808 115.71748215 28.82860686 115.68736053 32.14484859 C115.66142306 35.72350766 115.67021984 39.30210222 115.67477417 42.88082886 C115.67791864 49.07854137 115.65911149 55.27587457 115.62534714 61.47349167 C115.57656187 70.43411152 115.56095616 79.39454817 115.55341919 88.35528643 C115.54029097 102.89376089 115.50037106 117.43203322 115.44360352 131.97039795 C115.38852015 146.09213246 115.34605414 160.21381206 115.32055664 174.33563232 C115.3189803 175.20625869 115.31740396 176.07688506 115.31577985 176.97389404 C115.30794956 181.3416187 115.30036733 185.70934374 115.29290843 190.07706904 C115.23071915 226.30548935 115.12504995 262.53367986 114.9909668 298.76190186 C111.07522856 297.95319456 109.50092025 296.56562944 106.7409668 293.63690186 C90.97442747 277.43595221 73.01536013 265.90942343 49.8581543 265.46893311 C28.8836045 265.33202351 13.66843079 272.7407604 -3.17456055 284.61199951 C-7.70215869 287.76190186 -7.70215869 287.76190186 -11.0090332 287.76190186 C-11.14633644 252.06634766 -11.2520759 216.37083973 -11.31542518 180.67507588 C-11.32292951 176.46182994 -11.33069543 172.24858452 -11.33862305 168.03533936 C-11.34019691 167.19655047 -11.34177077 166.35776158 -11.34339233 165.49355485 C-11.36950736 151.90812206 -11.4168187 138.32284146 -11.47194998 124.73749898 C-11.52803943 110.79990656 -11.56138171 96.86239389 -11.57356417 82.92469323 C-11.58180106 74.32280191 -11.60782515 65.72134071 -11.656532 57.11958177 C-11.68822358 51.22273955 -11.69783935 45.32612001 -11.69004147 39.42919879 C-11.68619447 36.02571252 -11.69213165 32.62297833 -11.72426605 29.21962547 C-11.75403341 25.52957131 -11.74697309 21.84137094 -11.7305603 18.15127563 C-11.74803735 17.07539621 -11.7655144 15.99951679 -11.78352106 14.89103496 C-11.72558822 10.08630308 -11.62396002 6.73792036 -8.27700233 3.09768486 C-5.5764705 0.88643778 -3.55144681 0.0097104 0 0 Z " fill="#0CA069" transform="translate(499.009033203125,397.23809814453125)"/>
<path d="M0 0 C1.10445969 -0.00700928 2.20891937 -0.01401855 3.34684753 -0.02124023 C7.00240122 -0.03886347 10.6571824 -0.02718057 14.31274414 -0.01367188 C16.85095875 -0.01636572 19.38917235 -0.02024723 21.92738342 -0.02526855 C27.24955004 -0.03116968 32.5714393 -0.02296243 37.89355469 -0.00390625 C44.04101886 0.01785139 50.18795213 0.0108192 56.33540338 -0.01121187 C62.25465358 -0.03157384 68.17373927 -0.02938921 74.09301949 -0.01768494 C76.60923906 -0.01501515 79.12547217 -0.01829622 81.64167595 -0.02760315 C85.15861825 -0.03775539 88.67454 -0.02228388 92.19140625 0 C93.23312988 -0.00809692 94.27485352 -0.01619385 95.34814453 -0.02453613 C99.66104357 0.02612111 102.41376088 0.09801241 106.22096252 2.23742676 C110.00556504 6.6868947 110.41638608 10.75708142 110.46820068 16.48764038 C110.48134745 17.52182065 110.48134745 17.52182065 110.4947598 18.57689345 C110.52140813 20.88053816 110.53386389 23.18403012 110.54614258 25.48779297 C110.56195413 27.14218323 110.57849262 28.79656669 110.59570312 30.45094299 C110.64801536 35.8767341 110.67873697 41.30255516 110.70727539 46.72851562 C110.71799844 48.59839521 110.72875347 50.46827462 110.7395401 52.33815384 C110.78277129 60.11545579 110.82024614 67.89274963 110.84278488 75.67014122 C110.87528114 86.80889252 110.94170299 97.9462507 111.05558658 109.08447683 C111.13298325 116.92156505 111.17204914 124.75828055 111.18262601 132.59574091 C111.18993155 137.27518901 111.21394903 141.95314917 111.27883148 146.63218307 C111.33899923 151.03395924 111.35162101 155.43334762 111.32806396 159.83544731 C111.32762253 161.4483843 111.34423346 163.06143218 111.37937164 164.67398643 C111.63028959 176.85430986 111.63028959 176.85430986 107.98551178 180.97859573 C105.44750127 182.77606494 102.95331511 184.1615044 100.16040039 185.51757812 C98.91312359 186.36656357 97.67909917 187.23617854 96.47290039 188.14257812 C95.92537109 188.53485596 95.3778418 188.92713379 94.8137207 189.33129883 C93.99532715 189.91850708 93.99532715 189.91850708 93.16040039 190.51757812 C89.25925399 193.31137332 85.35100333 196.0920385 81.41040039 198.83007812 C76.74163216 202.08290845 72.14055824 205.42575649 67.53540039 208.76757812 C60.99637932 213.50985036 54.39422554 218.14290753 47.72192383 222.6953125 C42.97270558 225.9411295 38.3050503 229.28449192 33.66821289 232.68945312 C31.18703818 234.49815993 28.68057951 236.26372307 26.16040039 238.01757812 C22.62889687 240.47621981 19.1353882 242.97966568 15.66040039 245.51757812 C11.42379545 248.60899433 7.16324524 251.65804106 2.84790039 254.63867188 C0.80631069 256.06600421 -1.20745417 257.51588457 -3.21459961 258.99023438 C-4.38123178 259.83273006 -5.54789812 260.67517844 -6.71459961 261.51757812 C-7.26229004 261.92806396 -7.80998047 262.3385498 -8.37426758 262.76147461 C-12.29220172 265.5618123 -12.29220172 265.5618123 -15.15991211 265.33007812 C-16.83959961 264.51757812 -16.83959961 264.51757812 -17.83959961 263.51757812 C-17.93865445 262.16185472 -17.96882255 260.8010202 -17.97102737 259.44168472 C-17.97486852 258.55799469 -17.97870966 257.67430466 -17.98266721 256.76383615 C-17.98180073 255.78185872 -17.98093424 254.79988129 -17.9800415 253.78814697 C-17.98301263 252.75359808 -17.98598375 251.71904918 -17.9890449 250.65315032 C-17.99777394 247.15775627 -17.99924369 243.6623963 -18.00073242 240.16699219 C-18.00535766 237.67252529 -18.01038191 235.1780591 -18.01577759 232.68359375 C-18.02893275 225.88601206 -18.03538903 219.08844382 -18.03978825 212.29085255 C-18.0425478 208.04828834 -18.04678468 203.80572642 -18.05129242 199.56316376 C-18.06348875 187.82279223 -18.07378667 176.08242255 -18.07716751 164.34204483 C-18.07738708 163.5900645 -18.07760664 162.83808418 -18.07783286 162.06331657 C-18.07805114 161.30950518 -18.07826942 160.55569378 -18.07849431 159.77903962 C-18.07893778 158.2514561 -18.07938434 156.72387258 -18.07983398 155.19628906 C-18.08005541 154.43854996 -18.08027684 153.68081087 -18.08050498 152.90010998 C-18.08445248 140.6235902 -18.10190338 128.3471298 -18.12519351 116.07063296 C-18.14889789 103.47432656 -18.16136898 90.87804995 -18.16253543 78.28172088 C-18.16345282 71.20625691 -18.16922087 64.13087025 -18.18735504 57.05542755 C-18.20435084 50.40051611 -18.20601543 43.74572566 -18.19721603 37.09078979 C-18.19644296 34.64502317 -18.20082369 32.1992488 -18.21067429 29.75350189 C-18.22331349 26.42047216 -18.21756043 23.08796932 -18.20709229 19.75494385 C-18.21514869 18.78188931 -18.22320509 17.80883477 -18.23150563 16.80629373 C-18.19498433 11.85102326 -18.01620959 8.56599422 -14.83959961 4.51757812 C-14.34129135 3.76512817 -13.84298309 3.01267822 -13.32957458 2.23742676 C-9.22201231 -0.59970431 -4.87089944 -0.03778623 0 0 Z " fill="#0B9F68" transform="translate(319.839599609375,543.482421875)"/>
<path d="M0 0 C1.66391785 -0.00810448 1.66391785 -0.00810448 3.3614502 -0.01637268 C7.0314392 -0.0288898 10.70064846 -0.01235028 14.37060547 0.00561523 C16.91600587 0.00546034 19.46140652 0.00397294 22.00680542 0.00120544 C27.34156612 -0.00017982 32.67605078 0.01197001 38.01074219 0.03515625 C44.18205501 0.06179268 50.35299201 0.06350411 56.52434266 0.05176789 C62.45961548 0.04099876 68.39477338 0.04726908 74.33004379 0.06132317 C76.85711139 0.06585126 79.38419006 0.06616269 81.9112587 0.06225777 C85.43586468 0.0593606 88.95984758 0.07578043 92.484375 0.09765625 C94.06313919 0.09090378 94.06313919 0.09090378 95.67379761 0.08401489 C96.62997986 0.09391953 97.58616211 0.10382416 98.57131958 0.11402893 C99.40495592 0.11645883 100.23859226 0.11888872 101.09749031 0.12139225 C101.76254019 0.24689677 102.42759007 0.37240129 103.11279297 0.50170898 C104.10279297 1.98670898 104.10279297 1.98670898 105.11279297 3.50170898 C104.45279297 3.83170898 103.79279297 4.16170898 103.11279297 4.50170898 C102.12279297 4.00670898 102.12279297 4.00670898 101.11279297 3.50170898 C99.66706122 3.40348365 98.21692261 3.36668586 96.76786804 3.36126709 C95.85520172 3.35555695 94.9425354 3.3498468 94.00221252 3.34396362 C92.49593544 3.34228683 92.49593544 3.34228683 90.95922852 3.34057617 C89.90382874 3.33561127 88.84842896 3.33064636 87.76104736 3.32553101 C84.2571956 3.3108835 80.75338911 3.30410293 77.24951172 3.29858398 C74.82054136 3.2928345 72.39157103 3.28707674 69.96260071 3.28131104 C64.863981 3.27079356 59.76537709 3.26495583 54.66674805 3.26147461 C48.12951792 3.2559895 41.59249603 3.23196405 35.05533123 3.20350266 C30.03592822 3.18488988 25.01657549 3.17967139 19.99714088 3.17813873 C17.58697179 3.17510842 15.17680365 3.1670672 12.76666832 3.15395355 C9.39579759 3.13692249 6.02543717 3.13876641 2.65454102 3.14526367 C1.65642899 3.13604889 0.65831696 3.12683411 -0.37004089 3.11734009 C-7.12166083 3.15559614 -7.12166083 3.15559614 -12.88720703 6.50170898 C-14.19653638 9.12036769 -13.99177084 11.01257549 -13.96728516 13.94555664 C-13.96144409 15.09962006 -13.95560303 16.25368347 -13.94958496 17.44271851 C-13.93931274 18.71257599 -13.92904053 19.98243347 -13.91845703 21.29077148 C-13.90530976 24.04108958 -13.89752139 26.79140666 -13.89111328 29.54174805 C-13.88924767 30.26558622 -13.88738205 30.9894244 -13.8854599 31.73519707 C-13.87180453 40.14541518 -13.98388879 48.55347384 -14.10595703 56.96264648 C-14.11703491 57.73699287 -14.12811279 58.51133926 -14.13952637 59.3091507 C-14.20745788 64.03098867 -14.27857437 68.75277387 -14.35076904 73.47454834 C-14.41272693 77.5590987 -14.47210163 81.64368669 -14.53173828 85.72827148 C-14.64779802 93.65278809 -14.7665592 101.57726091 -14.88720703 109.50170898 C-15.87720703 109.99670898 -15.87720703 109.99670898 -16.88720703 110.50170898 C-16.9335538 97.56696784 -16.96908821 84.63224647 -16.99083138 71.69743919 C-17.00126715 65.69124798 -17.01542273 59.68511359 -17.03808594 53.67895508 C-17.05982146 47.88235541 -17.07177721 42.0858104 -17.07696152 36.28917313 C-17.08065598 34.07800054 -17.0878703 31.86683093 -17.09866714 29.65568161 C-17.11319131 26.55790499 -17.11518456 23.46035403 -17.11425781 20.36254883 C-17.12144836 19.44904663 -17.12863892 18.53554443 -17.13604736 17.59436035 C-17.11714233 11.75187497 -16.57531398 7.24050069 -13.44265747 2.1580658 C-9.2453749 -0.56247125 -4.8919435 -0.04510912 0 0 Z " fill="#10BC77" transform="translate(319.88720703125,543.498291015625)"/>
<path d="M0 0 C1.1127832 -0.00087616 2.22556641 -0.00175232 3.37207031 -0.00265503 C7.04124743 0.00151697 10.70858461 0.04815556 14.37744141 0.09521484 C16.92476401 0.10640824 19.47209955 0.11494774 22.0194397 0.12094116 C28.03323838 0.14149002 34.04625025 0.18875025 40.05973399 0.2490381 C46.90850089 0.3162032 53.75729993 0.34911711 60.60631442 0.37921071 C74.6892412 0.44185356 88.77158649 0.54732563 102.85400391 0.68115234 C103.84400391 2.66115234 103.84400391 2.66115234 104.85400391 4.68115234 C103.86400391 4.35115234 102.87400391 4.02115234 101.85400391 3.68115234 C100.32776649 3.58190934 98.79762888 3.53767123 97.26820374 3.5272522 C96.32747513 3.51865173 95.38674652 3.51005127 94.41751099 3.50119019 C93.38729828 3.49693024 92.35708557 3.49267029 91.2956543 3.48828125 C89.66603508 3.47601501 89.66603508 3.47601501 88.00349426 3.46350098 C84.40288853 3.43865586 80.80232211 3.42213615 77.20166016 3.40771484 C75.973757 3.40239117 74.74585384 3.39706749 73.4807415 3.39158249 C67.65550839 3.36761467 61.83029154 3.34836943 56.00502306 3.33556044 C49.28151968 3.32048238 42.55850035 3.2853543 35.83518225 3.23355925 C30.01047655 3.1902162 24.18593402 3.17421814 18.36108208 3.16782761 C15.88307389 3.16109466 13.40507395 3.14582009 10.92717171 3.1219368 C7.46495336 3.09046111 4.00407077 3.09022221 0.54174805 3.09765625 C-0.48644043 3.08125092 -1.51462891 3.06484558 -2.57397461 3.04794312 C-8.05267517 3.07690314 -8.05267517 3.07690314 -12.77986145 5.59120178 C-14.73255014 10.00783197 -14.7173516 13.92075663 -14.69189453 18.70385742 C-14.70223221 19.70920532 -14.71256989 20.71455322 -14.72322083 21.75036621 C-14.75267525 25.06730166 -14.7541486 28.38362758 -14.75537109 31.70068359 C-14.7703509 34.00283474 -14.78707762 36.30497512 -14.80548096 38.60710144 C-14.84918875 44.66186005 -14.86916134 50.71647368 -14.88421631 56.7713623 C-14.90377487 62.95166611 -14.94574636 69.13181305 -14.98583984 75.31201172 C-15.06117927 87.43501025 -15.11144829 99.55797375 -15.14599609 111.68115234 C-15.47599609 111.68115234 -15.80599609 111.68115234 -16.14599609 111.68115234 C-17.39474678 106.81711716 -17.32270134 102.01572118 -17.35473633 97.02905273 C-17.36452011 96.0626033 -17.37430389 95.09615387 -17.38438416 94.10041809 C-17.41424173 90.90989548 -17.43569159 87.71941427 -17.45458984 84.52880859 C-17.46116167 83.43762663 -17.4677335 82.34644466 -17.47450447 81.22219658 C-17.50704876 75.45112274 -17.53151696 69.68006706 -17.55102539 63.90893555 C-17.56886722 59.13359855 -17.60374135 54.35884884 -17.65356445 49.58374023 C-17.71369196 43.81371884 -17.74448978 38.04424364 -17.75419807 32.27392387 C-17.76276217 30.07665075 -17.78160359 27.87939261 -17.8109417 25.68229866 C-17.84979261 22.60843065 -17.8508994 19.53670111 -17.84301758 16.46264648 C-17.86301819 15.55699951 -17.8830188 14.65135254 -17.90362549 13.71826172 C-17.85506415 9.49776403 -17.52926131 6.44609176 -14.79905701 3.11238098 C-10.42359538 -0.56607166 -5.45811013 -0.11273368 0 0 Z " fill="#10C37E" transform="translate(505.14599609375,397.31884765625)"/>
<path d="M0 0 C1.24394531 0.02255859 2.48789062 0.04511719 3.76953125 0.06835938 C5.69732422 0.15633789 5.69732422 0.15633789 7.6640625 0.24609375 C8.97246094 0.27767578 10.28085937 0.30925781 11.62890625 0.34179688 C14.85125496 0.42411965 18.06900241 0.53907537 21.2890625 0.68359375 C21.2890625 1.01359375 21.2890625 1.34359375 21.2890625 1.68359375 C20.58821533 1.69817627 19.88736816 1.71275879 19.1652832 1.7277832 C15.97683241 1.80244862 12.78940737 1.8990485 9.6015625 1.99609375 C8.49876953 2.01865234 7.39597656 2.04121094 6.25976562 2.06445312 C4.6597168 2.11762695 4.6597168 2.11762695 3.02734375 2.171875 C2.04805908 2.19805908 1.06877441 2.22424316 0.05981445 2.2512207 C-4.10668234 2.90139832 -6.76491382 4.73757007 -9.7109375 7.68359375 C-9.91603579 10.10394432 -9.996083 12.41130936 -9.9894104 14.83352661 C-9.998099 15.95089968 -9.998099 15.95089968 -10.00696313 17.09084594 C-10.0240384 19.59983242 -10.02684605 22.10863579 -10.02978516 24.61767578 C-10.03907816 26.41105606 -10.04924588 28.20443199 -10.06022644 29.99780273 C-10.08761141 34.87768471 -10.10270093 39.75753769 -10.11565447 44.63747644 C-10.13124796 49.73311358 -10.15805015 54.82869116 -10.1836853 59.92428589 C-10.23054026 69.57858964 -10.26725179 79.23290451 -10.30035818 88.88726413 C-10.3385322 99.87625546 -10.38795466 110.86518707 -10.43834233 121.85412812 C-10.54176205 144.46390578 -10.6309897 167.07372178 -10.7109375 189.68359375 C-11.0409375 189.68359375 -11.3709375 189.68359375 -11.7109375 189.68359375 C-12.81364211 180.74070877 -12.88684887 171.86418659 -12.91967773 162.87036133 C-12.92923303 161.18568232 -12.93912488 159.50100518 -12.94932556 157.81632996 C-12.9804825 152.32028471 -13.00093434 146.82422528 -13.01953125 141.328125 C-13.02447723 139.92210482 -13.02447723 139.92210482 -13.02952313 138.4876802 C-13.06026475 129.64077379 -13.0869507 120.79386365 -13.10394192 111.94691944 C-13.12588825 100.65686888 -13.16800039 89.36729115 -13.23737949 78.07742959 C-13.28460762 70.12134844 -13.30887277 62.16539508 -13.3161388 54.20917815 C-13.32109141 49.4631393 -13.33613856 44.71763603 -13.3758831 39.97175026 C-13.41274826 35.51208153 -13.42115985 31.0532546 -13.40787697 26.59346199 C-13.4079309 24.95961385 -13.41821901 23.32572828 -13.4396286 21.69202042 C-13.61165137 7.822237 -13.61165137 7.822237 -9.87059021 3.20669556 C-6.80518542 0.26445246 -4.2628083 -0.13687917 0 0 Z " fill="#13AC72" transform="translate(687.7109375,251.31640625)"/>
<path d="M0 0 C0.33 0 0.66 0 1 0 C2.4066052 24.31417556 2.09903982 48.65574247 2 73 C2.99 73.33 3.98 73.66 5 74 C2.525 74.495 2.525 74.495 0 75 C0 50.25 0 25.5 0 0 Z " fill="#0A905F" transform="translate(488,610)"/>
<path d="M0 0 C37.62 0 75.24 0 114 0 C114 0.99 114 1.98 114 3 C113.01 2.67 112.02 2.34 111 2 C108.27062755 1.91372617 105.56760718 1.8844261 102.83862305 1.90234375 C102.00545563 1.90380402 101.17228821 1.90526428 100.31387329 1.9067688 C98.50017902 1.91057823 96.68648848 1.91669839 94.87280846 1.92483521 C91.98069392 1.93763733 89.08862556 1.94412697 86.19648743 1.94897461 C78.9952255 1.96233163 71.794006 1.98623174 64.59277344 2.01037598 C58.53341206 2.03035401 52.47406866 2.04590561 46.41468239 2.05593872 C43.60476579 2.0622897 40.79492433 2.07480785 37.98503113 2.08764648 C25.29859046 2.12296915 12.6674174 1.68543307 0 1 C0 0.67 0 0.34 0 0 Z " fill="#10CE8A" transform="translate(310,545)"/>
<path d="M0 0 C1.24716797 0.01611328 2.49433594 0.03222656 3.77929688 0.04882812 C5.07287109 0.09072266 6.36644531 0.13261719 7.69921875 0.17578125 C9.01212891 0.19833984 10.32503906 0.22089844 11.67773438 0.24414062 C14.91522005 0.303004 18.15038875 0.38519321 21.38671875 0.48828125 C21.38671875 0.81828125 21.38671875 1.14828125 21.38671875 1.48828125 C20.68587158 1.50286377 19.98502441 1.51744629 19.26293945 1.5324707 C16.07448866 1.60713612 12.88706362 1.703736 9.69921875 1.80078125 C8.59642578 1.82333984 7.49363281 1.84589844 6.35742188 1.86914062 C4.75737305 1.92231445 4.75737305 1.92231445 3.125 1.9765625 C2.14571533 2.00274658 1.16643066 2.02893066 0.1574707 2.0559082 C-4.00902609 2.70608582 -6.66725757 4.54225757 -9.61328125 7.48828125 C-9.94459538 9.87308171 -9.94459538 9.87308171 -9.93212891 12.67236328 C-9.9519986 13.75333282 -9.97186829 14.83430237 -9.99234009 15.94802856 C-10.0038913 17.11889008 -10.0154425 18.28975159 -10.02734375 19.49609375 C-10.0467099 20.69185028 -10.06607605 21.88760681 -10.08602905 23.11959839 C-10.14596069 26.95075273 -10.19226485 30.7819369 -10.23828125 34.61328125 C-10.27644849 37.2057425 -10.31549946 39.79819091 -10.35546875 42.390625 C-10.45167335 48.75639662 -10.53668086 55.1222452 -10.61328125 61.48828125 C-10.94328125 61.48828125 -11.27328125 61.48828125 -11.61328125 61.48828125 C-11.74005204 53.6047482 -11.8276212 45.72147794 -11.88793945 37.8371582 C-11.91026119 35.15489671 -11.94504919 32.47322705 -11.99047852 29.79125977 C-12.0511265 25.9361887 -12.07949252 22.08202355 -12.1015625 18.2265625 C-12.12736893 17.02743729 -12.15317535 15.82831207 -12.17976379 14.59284973 C-12.18253577 6.36631959 -12.18253577 6.36631959 -9.49609375 2.22265625 C-6.02814323 0.136247 -4.03055677 -0.09202184 0 0 Z " fill="#13CE87" transform="translate(687.61328125,251.51171875)"/>
<path d="M0 0 C0.99 0.33 1.98 0.66 3 1 C1.47005208 2.20442708 -0.05989583 3.40885417 -1.58984375 4.61328125 C-3.27155077 6.05683091 -3.27155077 6.05683091 -4 9 C-3.44570312 8.69964844 -2.89140625 8.39929688 -2.3203125 8.08984375 C-1.59585938 7.70957031 -0.87140625 7.32929687 -0.125 6.9375 C0.95394531 6.36322266 0.95394531 6.36322266 2.0546875 5.77734375 C3.01761719 5.39255859 3.01761719 5.39255859 4 5 C4.66 5.33 5.32 5.66 6 6 C1.81413519 9.18923033 -0.70558305 10.50423019 -6 10 C-6.33 8.68 -6.66 7.36 -7 6 C-5.90716423 4.96704564 -4.80029421 3.94892165 -3.6875 2.9375 C-3.07261719 2.36902344 -2.45773438 1.80054688 -1.82421875 1.21484375 C-0.92123047 0.61349609 -0.92123047 0.61349609 0 0 Z " fill="#14C983" transform="translate(218,927)"/>
<path d="M0 0 C0.99 0.33 1.98 0.66 3 1 C1.75482035 2.13033298 0.50363348 3.25405036 -0.75 4.375 C-1.44609375 5.00148438 -2.1421875 5.62796875 -2.859375 6.2734375 C-4.85833579 7.88573799 -6.66959493 8.95131772 -9 10 C-10.11375 10.556875 -10.11375 10.556875 -11.25 11.125 C-11.8275 11.41375 -12.405 11.7025 -13 12 C-13 11.01 -13 10.02 -13 9 C-10.9257235 7.26009332 -8.92115074 5.75492515 -6.6875 4.25 C-6.09259766 3.82589844 -5.49769531 3.40179687 -4.88476562 2.96484375 C-3.13671875 1.765625 -3.13671875 1.765625 0 0 Z " fill="#15C985" transform="translate(280,882)"/>
<path d="M0 0 C0.99 0.33 1.98 0.66 3 1 C0.87941855 2.67257128 -1.24604076 4.33815418 -3.375 6 C-3.97828125 6.47695313 -4.5815625 6.95390625 -5.203125 7.4453125 C-9.7734375 11 -9.7734375 11 -12 11 C-10.70439388 7.11318165 -8.90843632 6.14578818 -5.625 3.75 C-4.64789063 3.02296875 -3.67078125 2.2959375 -2.6640625 1.546875 C-1.78492188 1.03640625 -0.90578125 0.5259375 0 0 Z " fill="#15CA83" transform="translate(296,870)"/>
<path d="M0 0 C7.00056891 -0.28573751 12.97784896 -0.01476736 19 4 C18.67 4.66 18.34 5.32 18 6 C16.93072266 5.58427734 16.93072266 5.58427734 15.83984375 5.16015625 C10.52688947 3.15081553 5.66580592 1.50362719 0 1 C0 0.67 0 0.34 0 0 Z " fill="#0A784E" transform="translate(557,662)"/>
<path d="M0 0 C0 3 0 3 -1.96875 5.04296875 C-2.8040625 5.75066406 -3.639375 6.45835937 -4.5 7.1875 C-5.3353125 7.90292969 -6.170625 8.61835937 -7.03125 9.35546875 C-7.6809375 9.89816406 -8.330625 10.44085937 -9 11 C-9.33 10.01 -9.66 9.02 -10 8 C-6.7 5.36 -3.4 2.72 0 0 Z " fill="#02150D" transform="translate(729,776)"/>
<path d="M0 0 C-5.67989374 2.49118146 -8.94474232 3.38766322 -15 2 C-15 1.67 -15 1.34 -15 1 C-13.25215171 0.63536268 -11.50159498 0.2836922 -9.75 -0.0625 C-8.28820312 -0.35833984 -8.28820312 -0.35833984 -6.796875 -0.66015625 C-4.131881 -0.98397535 -2.51128277 -0.85503199 0 0 Z " fill="#10A262" transform="translate(983,474)"/>
<path d="M0 0 C-0.99 0 -1.98 0 -3 0 C-3 0.66 -3 1.32 -3 2 C-7.33273814 2.92844389 -10.66726186 2.92844389 -15 2 C-15 1.67 -15 1.34 -15 1 C-13.25215171 0.63536268 -11.50159498 0.2836922 -9.75 -0.0625 C-8.28820312 -0.35833984 -8.28820312 -0.35833984 -6.796875 -0.66015625 C-4.131881 -0.98397535 -2.51128277 -0.85503199 0 0 Z " fill="#0EAA68" transform="translate(999,471)"/>
<path d="M0 0 C1.43836751 0.11458693 2.87570966 0.24209116 4.3125 0.375 C5.51326172 0.47941406 5.51326172 0.47941406 6.73828125 0.5859375 C9 1 9 1 12 3 C3.42857143 3.14285714 3.42857143 3.14285714 0 2 C0 1.34 0 0.68 0 0 Z " fill="#13AB70" transform="translate(633,818)"/>
<path d="M0 0 C0.99 0.33 1.98 0.66 3 1 C1.71283353 2.00578589 0.42011342 3.00446798 -0.875 4 C-1.95394531 4.8353125 -1.95394531 4.8353125 -3.0546875 5.6875 C-5 7 -5 7 -7 7 C-5.65117186 2.95351557 -3.65173931 2.04497401 0 0 Z " fill="#14CA88" transform="translate(251,903)"/>
<path d="M0 0 C-3.3 2.31 -6.6 4.62 -10 7 C-10 6.01 -10 5.02 -10 4 C-8.57421875 2.578125 -8.57421875 2.578125 -6.6875 1.25 C-6.07261719 0.80140625 -5.45773437 0.3528125 -4.82421875 -0.109375 C-3 -1 -3 -1 0 0 Z " fill="#067F51" transform="translate(382,756)"/>
<path d="M0 0 C-1.55500981 3.81684226 -4.03595495 6.19195732 -7 9 C-6.53149863 4.78348764 -4.94559315 0 0 0 Z " fill="#13C37D" transform="translate(495,399)"/>
<path d="M0 0 C1.32 0.66 2.64 1.32 4 2 C2.824375 2.680625 2.824375 2.680625 1.625 3.375 C-1.03698031 4.88428742 -1.03698031 4.88428742 -3 7 C-3 3 -3 3 -1.5 1.25 C-1.005 0.8375 -0.51 0.425 0 0 Z " fill="#13C37E" transform="translate(308,545)"/>
<path d="M0 0 C0.99 0.33 1.98 0.66 3 1 C0.63404067 3.61500768 -1.86049226 5.38999603 -5 7 C-5.66 6.67 -6.32 6.34 -7 6 C-5.90716423 4.96704564 -4.80029421 3.94892165 -3.6875 2.9375 C-3.07261719 2.36902344 -2.45773437 1.80054688 -1.82421875 1.21484375 C-0.92123047 0.61349609 -0.92123047 0.61349609 0 0 Z " fill="#02180F" transform="translate(771,742)"/>
<path d="M0 0 C1.134375 0.020625 2.26875 0.04125 3.4375 0.0625 C1.33967213 2.16032787 0.0575793 2.7134396 -2.6875 3.6875 C-3.41195312 3.94789063 -4.13640625 4.20828125 -4.8828125 4.4765625 C-5.71425781 4.76660156 -5.71425781 4.76660156 -6.5625 5.0625 C-4.14811644 0.07277397 -4.14811644 0.07277397 0 0 Z " fill="#11D081" transform="translate(969.5625,475.9375)"/>
<path d="M0 0 C0.66 0.33 1.32 0.66 2 1 C-0.75 3.0625 -0.75 3.0625 -4 5 C-6.203125 4.62109375 -6.203125 4.62109375 -8 4 C-6.71349294 3.30289269 -5.42059335 2.61757124 -4.125 1.9375 C-3.40570313 1.55464844 -2.68640625 1.17179688 -1.9453125 0.77734375 C-1.30335938 0.52082031 -0.66140625 0.26429688 0 0 Z " fill="#1BCE89" transform="translate(222,932)"/>
<path d="M0 0 C0.99 0.33 1.98 0.66 3 1 C-2.75 6 -2.75 6 -5 6 C-3.63016497 2.83884224 -3.0109362 2.0072908 0 0 Z " fill="#11C582" transform="translate(957,541)"/>
<path d="M0 0 C0.66 0.33 1.32 0.66 2 1 C0.38405168 3.04119788 -1.2856382 5.04072937 -3 7 C-3.66 7 -4.32 7 -5 7 C-3.70700306 4.11562221 -2.34058637 2.12780579 0 0 Z " fill="#11BF7E" transform="translate(681,252)"/>
<path d="M0 0 C0.99 0.33 1.98 0.66 3 1 C0.36 2.65 -2.28 4.3 -5 6 C-3 2 -3 2 0 0 Z " fill="#13C782" transform="translate(335,842)"/>
<path d="M0 0 C0.33 0.99 0.66 1.98 1 3 C-0.98 3.99 -2.96 4.98 -5 6 C-5.66 5.34 -6.32 4.68 -7 4 C-4.69 2.68 -2.38 1.36 0 0 Z " fill="#041910" transform="translate(490,776)"/>
<path d="M0 0 C0 3 0 3 -1.25 4.75 C-1.8275 5.1625 -2.405 5.575 -3 6 C-4.32 5.67 -5.64 5.34 -7 5 C-4.69 3.35 -2.38 1.7 0 0 Z " fill="#03140D" transform="translate(737,770)"/>
</svg>
