<svg preserveAspectRatio="none" overflow="visible" style="display: block;" width="353.203" height="56.4481" viewBox="0 0 353.203 56.4481" fill="none" xmlns="http://www.w3.org/2000/svg">
<g id="Group">
<path id="Vector" d="M0.176007 6.10736C10.8671 4.19643 21.5582 2.28551 32.2492 2.28551C42.9403 2.28551 53.6314 7.41463 64.3225 7.41463C75.0135 7.41463 85.7046 7.30069 96.3957 7.19975C107.087 7.09881 117.778 7.06982 128.469 6.80897C139.16 6.54812 149.851 3.78067 160.542 3.78067C171.233 3.78067 181.923 7.06882 192.614 7.06882C203.305 7.06882 213.996 5.87249 224.688 5.49471C235.379 5.11692 246.07 4.8021 256.761 4.8021C267.452 4.8021 278.143 7.32468 288.834 7.32468C299.525 7.32468 310.216 7.03084 320.907 6.44317C331.598 5.8555 342.289 3.41487 352.98 0.975242V56.4481C342.289 56.4481 331.598 56.4481 320.907 56.4481C310.216 56.4481 299.525 56.4481 288.834 56.4481C278.143 56.4481 267.452 56.4481 256.761 56.4481C246.07 56.4481 235.379 56.4481 224.688 56.4481C213.996 56.4481 203.305 56.4481 192.614 56.4481C181.923 56.4481 171.233 56.4481 160.542 56.4481C149.851 56.4481 139.16 56.4481 128.469 56.4481C117.778 56.4481 107.087 56.4481 96.3957 56.4481C85.7046 56.4481 75.0135 56.4481 64.3225 56.4481C53.6314 56.4481 42.9403 56.4481 32.2492 56.4481C21.5582 56.4481 10.8671 56.4481 0.176007 56.4481V6.10736Z" fill="url(#paint0_linear_0_29)" fill-opacity="0.6"/>
<path id="Vector_2" d="M0.176007 6.10736C10.8671 4.19643 21.5582 2.28551 32.2492 2.28551C42.9403 2.28551 53.6314 7.41463 64.3225 7.41463C75.0135 7.41463 85.7046 7.30069 96.3957 7.19975C107.087 7.09881 117.778 7.06982 128.469 6.80897C139.16 6.54812 149.851 3.78067 160.542 3.78067C171.233 3.78067 181.923 7.06882 192.614 7.06882C203.305 7.06882 213.996 5.87249 224.688 5.49471C235.379 5.11692 246.07 4.8021 256.761 4.8021C267.452 4.8021 278.143 7.32468 288.834 7.32468C299.525 7.32468 310.216 7.03084 320.907 6.44317C331.598 5.8555 342.289 3.41487 352.98 0.975242" stroke="#5FB2C9" stroke-width="2.00062"/>
</g>
<defs>
<linearGradient id="paint0_linear_0_29" x1="0.176007" y1="0.975242" x2="0.176007" y2="56.4481" gradientUnits="userSpaceOnUse">
<stop stop-color="#5FB2C9" stop-opacity="0.22"/>
<stop offset="1" stop-color="#5FB2C9" stop-opacity="0"/>
</linearGradient>
</defs>
</svg>
